<svg xmlns="http://www.w3.org/2000/svg" viewBox="0 0 135.5 117.88"><g id="Layer_2" data-name="Layer 2"><g id="Layer_1-2" data-name="Layer 1"><path d="M135.23,57.94,115.55,23.85s0-.05,0-.08L109,12.46a.25.25,0,0,0,0-.07L102.36,1a2,2,0,0,0-1.73-1A2,2,0,0,0,98.9,1L92.35,12.33l0,.06-6.53,11.3a.41.41,0,0,1-.05.09L72.64,46.47l0,.08L66.06,57.88l0,.06L59.5,69.24l-.06.09-6.52,11.3a.41.41,0,0,0-.05.09L46.34,92a.41.41,0,0,1-.05.09l-6.55,11.34s0,0,0,0l-6.58,11.38a2,2,0,0,0-.26,1,2,2,0,0,0,2,2H48a2,2,0,0,0,1.73-1l6.53-11.32a.75.75,0,0,0,.07-.12L62.85,94.2l.06-.1,6.52-11.29a.41.41,0,0,0,0-.09L76,71.42a.41.41,0,0,1,0-.09L95.73,37.26a.31.31,0,0,0,0-.1l4.85-8.38,4.26,7.39L99,46.46l-.06.09L92.36,57.88l0,.06L72.62,92.05l0,.06L66.07,103.4a.31.31,0,0,0,0,.1l-6.58,11.38a2,2,0,0,0,0,2,2,2,0,0,0,1.74,1H74.33a2,2,0,0,0,1.73-1l6.52-11.3,0-.08,6.54-11.32a.75.75,0,0,1,.07-.12l6.49-11.25a.41.41,0,0,0,0-.09l6.52-11.3.06-.09L108.89,60s0-.08.07-.13l4.82-8.34L118,58.94,98.93,92l0,.07L92.37,103.4a.31.31,0,0,0-.05.1l-6.58,11.38a2,2,0,0,0,0,2,2,2,0,0,0,1.74,1h13.15a2,2,0,0,0,1.73-1l6.52-11.29a.41.41,0,0,0,.05-.09l6.54-11.32a.75.75,0,0,1,.07-.12l19.64-34a2.05,2.05,0,0,0,.32-1.1h0A2,2,0,0,0,135.23,57.94Z"/><path d="M49.76,71.33l6.57-11.39a.21.21,0,0,0,0-.06l6.48-11.23.06-.1,6.52-11.29a.31.31,0,0,0,0-.1L76,25.86l0-.08,6.57-11.39,0-.07L89.21,3a2,2,0,0,0,0-2,2,2,0,0,0-1.74-1H74.32a2,2,0,0,0-1.73,1L66,12.39l0,.07L59.5,23.69l-.06.09-6.52,11.3a.41.41,0,0,0-.05.09L39.72,57.94a.43.43,0,0,0,0,.07L28.3,77.72,17.46,58.94,43.18,14.39a.25.25,0,0,0,0-.07L49.76,3A2,2,0,0,0,48,0H34.88a2,2,0,0,0-1.76,1.05L26.57,12.39a.43.43,0,0,0,0,.07L6.84,46.55a.16.16,0,0,1,0,.07L.32,57.86A2,2,0,0,0,0,58.94a2,2,0,0,0,.27,1l26.3,45.55a2,2,0,0,0,1.73,1,2,2,0,0,0,1.73-1L49.71,71.42A.41.41,0,0,1,49.76,71.33Z"/></g></g></svg>